<svg xmlns="http://www.w3.org/2000/svg" xmlns:xlink="http://www.w3.org/1999/xlink" width="1080" zoomAndPan="magnify" viewBox="0 0 810 1439.999935" height="1920" preserveAspectRatio="xMidYMid meet" version="1.0"><defs><filter x="0%" y="0%" width="100%" height="100%" id="966761d88b"><feColorMatrix values="0 0 0 0 1 0 0 0 0 1 0 0 0 0 1 0 0 0 1 0" color-interpolation-filters="sRGB"/></filter><clipPath id="89f78020c5"><path d="M 111.984375 703.507812 L 694.84375 703.507812 L 694.84375 888.632812 L 111.984375 888.632812 Z M 111.984375 703.507812 " clip-rule="nonzero"/></clipPath><clipPath id="9f14fe8162"><path d="M 586.558594 703.507812 C 646.042969 703.507812 694.261719 744.949219 694.261719 796.070312 C 694.261719 847.191406 646.042969 888.632812 586.558594 888.632812 L 219.683594 888.632812 C 160.203125 888.632812 111.984375 847.191406 111.984375 796.070312 C 111.984375 744.949219 160.203125 703.507812 219.683594 703.507812 Z M 586.558594 703.507812 " clip-rule="nonzero"/></clipPath><clipPath id="3bb52df06e"><path d="M 111.984375 703.507812 L 693.984375 703.507812 L 693.984375 888.757812 L 111.984375 888.757812 Z M 111.984375 703.507812 " clip-rule="nonzero"/></clipPath><clipPath id="07d1cdadde"><path d="M 586.550781 703.507812 C 646.03125 703.507812 694.25 744.949219 694.25 796.070312 C 694.25 847.1875 646.03125 888.628906 586.550781 888.628906 L 219.6875 888.628906 C 160.203125 888.628906 111.984375 847.1875 111.984375 796.070312 C 111.984375 744.949219 160.203125 703.507812 219.6875 703.507812 Z M 586.550781 703.507812 " clip-rule="nonzero"/></clipPath><mask id="1946c1b349"><g filter="url(#966761d88b)"><rect x="-81" width="972" fill="#000000" y="-143.999994" height="1727.999922" fill-opacity="0.36"/></g></mask><clipPath id="e487620454"><path d="M 107.417969 171.117188 L 428.417969 171.117188 L 428.417969 351.867188 L 107.417969 351.867188 Z M 107.417969 171.117188 " clip-rule="nonzero"/></clipPath><clipPath id="11a45d2cf7"><rect x="0" width="468" y="0" height="488"/></clipPath><clipPath id="5189f420e0"><path d="M 172.214844 757.519531 L 230.496094 757.519531 L 230.496094 834.644531 L 172.214844 834.644531 Z M 172.214844 757.519531 " clip-rule="nonzero"/></clipPath></defs><g clip-path="url(#89f78020c5)"><g clip-path="url(#9f14fe8162)"><path fill="#004aad" d="M 111.984375 703.507812 L 694.117188 703.507812 L 694.117188 888.632812 L 111.984375 888.632812 Z M 111.984375 703.507812 " fill-opacity="1" fill-rule="nonzero"/></g></g><g clip-path="url(#3bb52df06e)"><g clip-path="url(#07d1cdadde)"><path stroke-linecap="butt" transform="matrix(0.75, 0, 0, 0.75, 111.9862, 703.507887)" fill="none" stroke-linejoin="miter" d="M 632.75283 -0.0000992421 C 712.060129 -0.0000992421 776.351801 55.255114 776.351801 123.416578 C 776.351801 191.572834 712.060129 246.828047 632.75283 246.828047 L 143.601746 246.828047 C 64.289239 246.828047 -0.00243301 191.572834 -0.00243301 123.416578 C -0.00243301 55.255114 64.289239 -0.0000992421 143.601746 -0.0000992421 Z M 632.75283 -0.0000992421 " stroke="#004aad" stroke-width="20" stroke-opacity="1" stroke-miterlimit="4"/></g></g><g mask="url(#1946c1b349)"><g transform="matrix(1, 0, 0, 1, 158, 537)"><g clip-path="url(#11a45d2cf7)"><g clip-path="url(#e487620454)"><path fill="#ffffff" d="M 389.027344 303.167969 C 386.683594 311.128906 385.46875 319.398438 385.429688 327.695312 L 385.617188 333.914062 L 386.25 340.113281 L 387.328125 346.257812 C 387.566406 347.253906 388.039062 348.128906 388.601562 349.0625 C 381.082031 343.957031 373.640625 338.746094 366.3125 333.402344 L 355.097656 325.039062 L 354.800781 324.808594 C 355.976562 312.914062 359.417969 301.152344 365.660156 290.738281 C 372.070312 280.023438 381.488281 270.832031 393.039062 264.828125 L 393.21875 264.726562 L 393.253906 264.703125 C 393.359375 264.644531 393.457031 264.5625 393.535156 264.457031 C 393.609375 264.355469 393.585938 264.238281 393.613281 264.125 C 400.484375 263.800781 407.34375 263.359375 414.199219 262.84375 C 402.183594 273.816406 393.480469 287.929688 389.027344 303.167969 Z M 381.472656 349.515625 C 378.148438 349.679688 374.828125 349.988281 371.535156 350.429688 C 364.980469 351.222656 358.195312 352.855469 352.253906 355.996094 C 346.335938 359.074219 341.023438 363.773438 338.367188 369.792969 C 336.933594 372.9375 336.199219 376.378906 336.238281 379.804688 C 332.496094 372.625 328.792969 365.429688 325.246094 358.164062 C 321.8125 351.320312 318.496094 344.429688 315.242188 337.511719 C 318.929688 331.90625 324.816406 327.5625 331.5 325.5625 C 334.886719 324.554688 338.457031 324.105469 341.988281 324.414062 C 345.527344 324.695312 348.988281 325.695312 352.203125 327.222656 L 352.234375 327.234375 C 352.425781 327.320312 352.632812 327.378906 352.851562 327.394531 C 352.910156 327.398438 352.964844 327.378906 353.019531 327.378906 C 356.828125 330.160156 360.667969 332.894531 364.535156 335.589844 C 371.253906 340.300781 378.0625 344.878906 384.921875 349.386719 Z M 307.742188 371.878906 C 296.140625 368.769531 283.988281 367.605469 271.933594 368.433594 C 259.78125 369.394531 248.226562 373.136719 237.269531 377.652344 C 227.738281 381.632812 218.589844 386.292969 209.671875 391.265625 C 212.402344 385.175781 215.175781 379.117188 218.046875 373.089844 C 222.695312 363.363281 227.523438 353.707031 232.601562 344.179688 C 232.652344 344.074219 232.710938 343.976562 232.757812 343.875 C 238.105469 339.824219 244.304688 336.71875 250.792969 334.402344 C 257.480469 332.023438 264.503906 330.425781 271.597656 329.75 C 285.328125 328.425781 299.390625 331.355469 311.378906 337.75 C 318.820312 353.507812 326.824219 369.011719 335.1875 384.335938 C 326.859375 378.796875 317.554688 374.550781 307.742188 371.878906 Z M 202.804688 368.738281 C 199.21875 360.492188 194.589844 352.484375 187.914062 345.890625 C 181.296875 339.300781 173.164062 334.324219 164.652344 330.433594 C 157.328125 327.082031 149.703125 324.46875 142.007812 322.167969 C 151.101562 317.046875 160.199219 311.9375 169.449219 307.082031 C 176.046875 305.652344 182.855469 304.972656 189.597656 305.179688 C 196.679688 305.433594 203.871094 306.648438 209.871094 309.878906 C 215.828125 313.203125 220.734375 318.214844 223.929688 324.054688 C 227.101562 329.765625 228.753906 336.175781 229.441406 342.65625 C 229.429688 342.675781 229.421875 342.699219 229.40625 342.71875 C 224.492188 352.375 219.835938 362.144531 215.363281 371.980469 C 212.910156 377.355469 210.527344 382.757812 208.191406 388.175781 C 207.472656 381.433594 205.390625 374.9375 202.804688 368.738281 Z M 141.90625 281.503906 C 137.878906 269.339844 129.308594 258.941406 118.664062 251.328125 C 119.59375 251.277344 120.515625 251.203125 121.4375 251.160156 C 134.421875 250.496094 147.421875 249.746094 160.433594 249.53125 C 164.605469 252.625 168.34375 256.238281 171.425781 260.277344 C 174.824219 264.75 177.488281 269.828125 178.289062 275.15625 C 178.984375 280.488281 177.632812 285.996094 175.59375 291.105469 C 173.605469 295.996094 170.871094 300.652344 167.457031 304.75 C 158.746094 309.039062 150.054688 313.367188 141.460938 317.867188 C 145.621094 306.179688 145.800781 293.277344 141.90625 281.503906 Z M 134.289062 236.613281 C 139.894531 230.628906 144.242188 223.730469 147.722656 216.53125 C 151.179688 209.308594 153.660156 201.714844 155.398438 193.996094 C 156.964844 187.28125 157.933594 180.453125 158.425781 173.589844 L 169.710938 179.746094 L 186.910156 189.839844 L 196.824219 196.125 C 197.960938 201.507812 198.320312 207.023438 197.722656 212.445312 C 197.042969 218.394531 195.230469 224.316406 191.816406 229.292969 C 188.460938 234.324219 183.074219 237.667969 177.164062 240.046875 C 171.949219 242.21875 166.421875 244.023438 161.183594 246.492188 C 147.855469 246.269531 134.507812 246.332031 121.210938 247.378906 C 126.046875 244.339844 130.480469 240.730469 134.289062 236.613281 Z M 182.113281 165.453125 C 189.992188 160.945312 196.644531 154.542969 201.144531 146.949219 C 205.570312 139.324219 207.980469 131.050781 209.449219 122.75 C 210.234375 118.09375 210.664062 113.402344 210.785156 108.695312 C 217.765625 121.167969 224.453125 133.800781 230.855469 146.574219 C 231.339844 150.855469 230.953125 155.25 229.84375 159.484375 C 228.503906 164.636719 226.171875 169.578125 223.140625 174.089844 C 220.09375 178.589844 216.378906 182.714844 212.035156 186.148438 C 208.039062 189.285156 203.429688 191.785156 198.433594 193.15625 C 195.203125 191.160156 191.976562 189.144531 188.714844 187.195312 L 171.3125 177.210938 L 162.304688 172.410156 C 169.273438 171.242188 176.050781 168.9375 182.113281 165.453125 Z M 242.484375 127.574219 C 255.320312 136.082031 269.007812 143.820312 284.039062 148.789062 C 298.898438 153.8125 314.808594 156.511719 330.621094 156.253906 C 344.144531 156.128906 357.472656 154.3125 370.628906 151.953125 C 361.464844 158.59375 352.613281 165.621094 344.199219 173.097656 C 343.199219 173.984375 342.25 174.917969 341.261719 175.808594 C 339.5 176.210938 337.136719 176.195312 335.039062 176.175781 C 332.585938 176.121094 330.117188 175.960938 327.652344 175.78125 C 322.722656 175.378906 317.789062 174.820312 312.863281 174.25 C 303.019531 173.035156 293.199219 171.503906 283.527344 169.496094 C 278.703125 168.441406 273.890625 167.390625 269.410156 165.699219 C 264.894531 163.992188 260.574219 161.78125 256.34375 159.4375 C 248.535156 155.023438 241.246094 149.746094 234.503906 143.953125 C 228.9375 132.03125 223.085938 120.210938 216.828125 108.578125 C 225.085938 115.226562 233.585938 121.636719 242.484375 127.574219 Z M 370.019531 166.5 C 368.824219 172.601562 368.429688 179.050781 370.074219 185.28125 C 371.660156 191.507812 375.378906 197.242188 380.332031 201.507812 C 384.484375 205.164062 389.222656 208.03125 394.125 210.527344 C 386.660156 213.394531 379.214844 216.316406 371.800781 219.289062 C 371.546875 219.234375 371.292969 219.164062 371.042969 219.125 L 369 218.769531 C 367.707031 218.511719 366.421875 218.214844 365.152344 217.855469 C 362.628906 217.140625 360.183594 216.195312 357.882812 215 C 353.257812 212.628906 349.261719 209.234375 345.964844 205.28125 C 342.660156 201.441406 340.714844 196.742188 340.695312 191.78125 C 340.621094 187.207031 341.773438 182.609375 343.144531 178.070312 C 344.179688 177.082031 345.191406 176.066406 346.234375 175.082031 C 355.0625 166.800781 364.460938 159.0625 374.28125 151.820312 C 372.539062 156.605469 371.011719 161.472656 370.019531 166.5 Z M 344.078125 316.460938 C 336.773438 310.699219 329.585938 304.808594 322.605469 298.71875 C 321.316406 297.621094 320.070312 296.476562 318.792969 295.359375 C 321.164062 288.722656 325.199219 282.550781 330.230469 277.308594 C 335.503906 271.890625 341.960938 267.351562 349.242188 265.019531 C 350.117188 265.03125 350.992188 265.070312 351.871094 265.078125 C 359.613281 265.09375 367.359375 265 375.097656 264.835938 C 380.15625 264.71875 385.214844 264.46875 390.269531 264.253906 C 384.988281 267.027344 380.050781 270.40625 375.671875 274.355469 C 370.746094 278.753906 366.613281 283.90625 363.191406 289.410156 C 356.941406 299.511719 353.273438 310.859375 351.707031 322.394531 Z M 313.523438 333.824219 C 312.3125 331.226562 311.078125 328.640625 309.898438 326.027344 C 306.464844 318.664062 303.195312 311.234375 300.011719 303.773438 C 301.816406 301.359375 304.160156 299.257812 306.847656 297.90625 C 309.71875 296.449219 312.992188 296.027344 315.730469 297.234375 C 317.195312 298.566406 318.632812 299.929688 320.113281 301.242188 C 328.214844 308.285156 336.609375 315 345.1875 321.503906 C 344.242188 321.324219 343.289062 321.179688 342.324219 321.089844 C 338.308594 320.707031 334.199219 321.117188 330.375 322.292969 C 323.625 324.339844 317.671875 328.445312 313.523438 333.824219 Z M 240.226562 329.886719 C 242.765625 325.121094 245.472656 320.445312 248.183594 315.761719 C 249.96875 312.605469 251.820312 309.488281 253.652344 306.355469 C 256.511719 304.640625 259.847656 303.441406 263.257812 302.582031 C 267.035156 301.660156 270.933594 301.066406 274.847656 300.839844 C 278.757812 300.613281 282.703125 300.699219 286.523438 301.257812 C 290.308594 301.8125 294.105469 302.859375 296.902344 304.84375 L 296.929688 304.867188 L 296.957031 304.882812 C 300.007812 312.441406 303.207031 319.933594 306.527344 327.378906 C 307.34375 329.183594 308.214844 330.972656 309.046875 332.773438 C 297.371094 327.496094 284.152344 325.210938 271.25 326.484375 C 263.8125 327.207031 256.527344 328.890625 249.5625 331.378906 C 244.820312 333.089844 240.226562 335.230469 235.917969 337.828125 C 237.339844 335.179688 238.78125 332.53125 240.226562 329.886719 Z M 221.949219 283.035156 C 224.738281 282.621094 227.640625 282.585938 230.46875 282.851562 C 234.464844 283.261719 238.503906 284.238281 241.738281 286.214844 C 245.035156 288.265625 247.636719 291.199219 249.089844 294.613281 C 250.484375 297.851562 250.835938 301.445312 250.507812 304.988281 C 248.648438 308.027344 246.769531 311.058594 244.960938 314.121094 C 242.253906 318.832031 239.550781 323.546875 237.015625 328.339844 C 235.363281 331.382812 233.726562 334.4375 232.117188 337.5 C 231.148438 332.355469 229.503906 327.296875 226.890625 322.609375 C 223.398438 316.320312 218.125 310.804688 211.464844 307.253906 C 204.699219 303.742188 197.070312 302.621094 189.679688 302.441406 C 185.378906 302.367188 181.097656 302.664062 176.859375 303.230469 C 191.566406 295.855469 206.699219 289.296875 221.949219 283.035156 Z M 233.777344 152.46875 C 236.851562 158.695312 239.890625 164.941406 242.832031 171.230469 C 245.246094 176.382812 247.585938 181.5625 249.933594 186.742188 C 249.914062 186.921875 249.929688 187.101562 249.984375 187.28125 C 250.976562 190.570312 251.308594 194.078125 251.109375 197.519531 C 250.914062 200.914062 250.121094 204.484375 248.425781 207.152344 C 246.628906 209.632812 243.101562 211.285156 239.664062 212.367188 C 236.476562 213.367188 233.097656 213.886719 229.695312 214.101562 C 227.273438 212.320312 224.839844 210.554688 222.386719 208.8125 C 216.851562 205.101562 211.382812 201.300781 205.789062 197.667969 C 203.953125 196.539062 202.105469 195.421875 200.273438 194.285156 C 205.046875 192.894531 209.480469 190.582031 213.371094 187.695312 C 218.042969 184.246094 222.023438 180.023438 225.234375 175.34375 C 228.457031 170.671875 230.957031 165.53125 232.453125 160.101562 C 233.136719 157.613281 233.574219 155.050781 233.777344 152.46875 Z M 316.070312 201.457031 C 315.578125 201.585938 315.085938 201.734375 314.691406 201.894531 L 312.59375 202.566406 C 311.171875 202.980469 309.730469 203.34375 308.269531 203.660156 C 305.34375 204.277344 302.359375 204.710938 299.363281 204.996094 C 293.375 205.554688 287.253906 205.5625 281.4375 204.5625 C 275.683594 203.5 270.113281 201.085938 265.246094 197.902344 C 260.742188 194.949219 256.800781 191.261719 253.523438 187.113281 C 251.113281 181.363281 248.699219 175.609375 246.207031 169.886719 C 243.304688 163.25 240.347656 156.632812 237.320312 150.03125 C 242.765625 154.4375 248.523438 158.480469 254.652344 162.042969 C 258.953125 164.546875 263.480469 166.726562 268.222656 168.507812 C 273.023438 170.273438 277.980469 171.3125 282.863281 172.347656 C 292.683594 174.308594 302.566406 175.78125 312.507812 176.9375 C 317.476562 177.503906 322.453125 177.996094 327.46875 178.242188 C 329.984375 178.363281 332.492188 178.457031 335.027344 178.449219 C 336.210938 178.398438 337.355469 178.40625 338.53125 178.339844 C 330.636719 185.683594 323.089844 193.355469 316.070312 201.457031 Z M 349.097656 228.570312 C 342.128906 227.257812 335.546875 224.34375 330.605469 219.605469 C 327.992188 217.160156 325.769531 214.34375 323.851562 211.34375 C 322.882812 209.84375 322.007812 208.285156 321.171875 206.710938 L 319.914062 204.207031 C 319.726562 203.820312 319.5 203.453125 319.277344 203.078125 C 321.84375 200.113281 324.347656 197.097656 327.128906 194.296875 C 331.199219 189.816406 335.492188 185.511719 339.84375 181.265625 C 338.890625 184.667969 338.15625 188.160156 338.125 191.792969 C 337.996094 197.210938 340.121094 202.707031 343.65625 206.953125 C 347.042969 211.199219 351.277344 214.980469 356.269531 217.671875 C 358.757812 219.023438 361.398438 220.109375 364.121094 220.941406 C 364.832031 221.160156 365.554688 221.316406 366.273438 221.5 C 360.523438 223.808594 354.804688 226.179688 349.097656 228.570312 Z M 328.789062 261.101562 L 286.257812 259.84375 L 325.640625 242.472656 C 332.492188 239.414062 339.375 236.421875 346.246094 233.398438 C 344.171875 237.484375 343.253906 242.089844 343.359375 246.558594 C 343.441406 251.726562 344.597656 256.765625 346.285156 261.601562 C 340.453125 261.460938 334.621094 261.324219 328.789062 261.101562 Z M 315.917969 292.820312 C 304.789062 282.921875 294.191406 272.503906 284.421875 261.402344 C 299.125 262.894531 313.878906 263.832031 328.648438 264.542969 C 332.757812 264.679688 336.863281 264.734375 340.976562 264.828125 C 335.878906 267.460938 331.378906 271.023438 327.519531 274.996094 C 322.539062 280.191406 318.527344 286.207031 315.917969 292.820312 Z M 284.75 264.710938 C 292.78125 274.808594 301.742188 284.21875 311.234375 293.121094 C 311.191406 293.121094 311.144531 293.117188 311.097656 293.121094 C 308.945312 293.308594 306.929688 293.988281 305.132812 294.902344 C 302.527344 296.25 300.320312 298.054688 298.472656 300.140625 C 293.5625 288.453125 288.96875 276.644531 284.75 264.710938 Z M 282.121094 262.15625 C 285.765625 275.011719 290.171875 287.65625 295.074219 300.136719 C 292.460938 299.070312 289.734375 298.453125 287.042969 298.054688 C 282.894531 297.484375 278.738281 297.433594 274.613281 297.699219 C 270.488281 297.960938 266.402344 298.621094 262.40625 299.683594 C 260.355469 300.246094 258.308594 300.90625 256.332031 301.757812 C 264.402344 288.265625 272.988281 275.058594 282.121094 262.15625 Z M 280.144531 259.328125 C 263.46875 255.261719 246.476562 252.367188 229.390625 250.203125 C 224.058594 249.546875 218.714844 249.046875 213.359375 248.621094 C 215.296875 247.738281 217.140625 246.675781 218.816406 245.382812 C 221.863281 243.046875 224.289062 240.019531 226.003906 236.714844 C 228.933594 231.050781 229.984375 224.792969 230.0625 218.605469 C 247.597656 231.210938 264.363281 244.769531 280.144531 259.328125 Z M 254.441406 197.695312 C 254.457031 197.371094 254.445312 197.054688 254.449219 196.730469 C 263.492188 217.015625 272.160156 237.464844 280.828125 257.914062 C 266.097656 242.851562 249.863281 229.125 232.796875 216.402344 C 235.410156 216.152344 238.007812 215.714844 240.550781 214.984375 C 244.335938 213.816406 248.304688 212.324219 251.074219 208.832031 C 253.449219 205.292969 254.15625 201.492188 254.441406 197.695312 Z M 306.746094 212.816406 C 296.3125 226.734375 286.941406 241.777344 282.09375 258.367188 C 273.8125 237.210938 265.527344 216.046875 256.835938 195.015625 C 258.910156 196.917969 261.121094 198.6875 263.5 200.253906 C 268.699219 203.660156 274.53125 206.226562 280.847656 207.417969 C 287.132812 208.507812 293.445312 208.492188 299.675781 207.929688 C 302.789062 207.640625 305.894531 207.195312 308.96875 206.558594 C 310.179688 206.296875 311.382812 205.976562 312.582031 205.652344 C 310.613281 208.019531 308.625 210.375 306.746094 212.816406 Z M 317.15625 205.574219 C 317.164062 205.597656 317.171875 205.628906 317.179688 205.65625 L 318.40625 208.011719 C 319.300781 209.640625 320.242188 211.25 321.28125 212.816406 C 323.351562 215.941406 325.761719 218.917969 328.625 221.507812 C 331.472656 224.101562 334.78125 226.289062 338.378906 227.871094 C 340.578125 228.851562 342.875 229.59375 345.207031 230.183594 C 338.125 233.179688 331.082031 236.242188 324.0625 239.363281 C 310.628906 245.5 297.261719 251.765625 284.15625 258.496094 C 289.960938 242.738281 299.253906 228.296875 309.71875 214.832031 C 312.140625 211.703125 314.554688 208.574219 317.15625 205.574219 Z M 224.269531 263.449219 C 222.835938 260.117188 220.46875 257.316406 217.761719 254.945312 C 216.570312 253.914062 215.292969 252.96875 213.960938 252.101562 C 218.960938 252.585938 223.960938 253.09375 228.949219 253.621094 C 245.578125 255.324219 262.105469 257.773438 278.621094 260.46875 C 261.121094 264.800781 244.085938 270.660156 227.335938 277.058594 C 225.535156 277.769531 223.765625 278.550781 221.976562 279.285156 C 222.976562 277.625 223.824219 275.886719 224.421875 274.046875 C 225.527344 270.667969 225.707031 266.851562 224.269531 263.449219 Z M 251.632812 293.636719 C 249.9375 289.75 246.894531 286.414062 243.183594 284.164062 C 239.335938 281.882812 235 280.9375 230.710938 280.527344 C 229.917969 280.460938 229.121094 280.441406 228.324219 280.414062 C 228.476562 280.351562 228.625 280.292969 228.773438 280.230469 C 245.53125 273.265625 262.753906 267.386719 280.21875 262.148438 C 270.4375 274.351562 261.570312 287.171875 253.332031 300.34375 C 253.105469 298.054688 252.589844 295.785156 251.632812 293.636719 Z M 371.390625 227.28125 C 371.652344 229.332031 371.984375 231.375 372.394531 233.410156 C 373.246094 237.464844 374.453125 241.464844 376.121094 245.308594 C 378.796875 251.554688 382.882812 257.417969 388.335938 261.867188 C 383.910156 261.949219 379.484375 262.074219 375.058594 262.078125 C 367.34375 262.058594 359.632812 261.957031 351.917969 261.757812 C 351.269531 261.742188 350.621094 261.71875 349.96875 261.699219 C 348.039062 256.789062 346.683594 251.660156 346.503906 246.5 C 346.339844 241.285156 347.46875 236.03125 350.347656 231.585938 C 356.367188 228.941406 362.359375 226.253906 368.390625 223.632812 C 369.355469 223.222656 370.328125 222.824219 371.292969 222.414062 C 371.132812 223.054688 371.027344 223.605469 371.074219 224.207031 Z M 198.863281 197.421875 L 203.71875 200.5 C 209.273438 204.105469 214.699219 207.890625 220.203125 211.578125 C 222.644531 213.253906 225.023438 215.019531 227.433594 216.734375 C 227.726562 223.28125 226.972656 229.949219 224.09375 235.855469 C 222.554688 238.972656 220.433594 241.851562 217.667969 244.113281 C 215.480469 245.921875 212.9375 247.339844 210.21875 248.398438 C 198.609375 247.558594 186.964844 247.109375 175.335938 246.796875 C 171.839844 246.710938 168.335938 246.636719 164.835938 246.5625 C 169.191406 245.015625 173.664062 243.683594 178.054688 241.964844 C 181.097656 240.753906 184.125 239.355469 186.863281 237.464844 C 189.613281 235.585938 191.96875 233.152344 193.765625 230.464844 C 197.382812 225.070312 199.183594 218.855469 199.832031 212.648438 C 200.40625 207.550781 199.960938 202.410156 198.863281 197.421875 Z M 180.382812 274.882812 C 179.433594 269.0625 176.429688 263.867188 172.824219 259.3125 C 169.871094 255.640625 166.417969 252.359375 162.605469 249.5 C 166.820312 249.453125 171.042969 249.453125 175.261719 249.554688 C 187.148438 249.816406 198.988281 250.707031 210.804688 251.8125 C 212.925781 253 214.90625 254.414062 216.6875 256.011719 C 219.21875 258.308594 221.429688 261.007812 222.609375 264.042969 C 223.777344 267.042969 223.546875 270.402344 222.449219 273.464844 C 221.503906 276.128906 219.960938 278.597656 218.140625 280.875 C 203.597656 287.03125 189.429688 293.929688 175.324219 300.878906 C 174.339844 301.359375 173.355469 301.84375 172.375 302.328125 C 174.5625 299.027344 176.386719 295.527344 177.808594 291.878906 C 179.84375 286.519531 181.222656 280.738281 180.382812 274.882812 Z M 395.023438 240.109375 C 397.117188 244.925781 400.203125 249.21875 403.738281 253.085938 C 406.4375 256.003906 409.421875 258.699219 412.722656 261.035156 C 405.613281 261.386719 398.496094 261.652344 391.378906 261.8125 C 385.492188 257.304688 381.289062 251.066406 378.6875 244.375 C 377.230469 240.660156 376.210938 236.796875 375.535156 232.882812 C 375.210938 230.921875 374.960938 228.949219 374.777344 226.972656 L 374.578125 223.996094 C 374.550781 223.054688 374.421875 222.09375 374.261719 221.160156 C 381.121094 218.246094 388 215.371094 394.894531 212.53125 C 393.039062 216.453125 392.085938 220.714844 392.015625 224.953125 C 391.9375 230.152344 393.007812 235.292969 395.023438 240.109375 Z M 417.523438 263.03125 C 417.589844 262.972656 417.652344 262.902344 417.707031 262.828125 C 417.753906 262.757812 417.71875 262.675781 417.75 262.601562 C 418.984375 262.5 420.226562 262.449219 421.460938 262.34375 C 436.871094 260.976562 467.65625 256.777344 467.644531 256.6875 C 467.632812 256.589844 433.714844 259.914062 416.800781 260.847656 C 412.667969 258.269531 408.957031 255.054688 405.714844 251.496094 C 402.359375 247.769531 399.449219 243.636719 397.558594 239.164062 C 393.875 230.21875 393.648438 219.617188 398.792969 211.347656 L 398.828125 211.285156 C 398.902344 211.15625 398.925781 211.019531 398.949219 210.882812 C 417.605469 203.265625 455.578125 189.027344 455.542969 188.941406 C 455.511719 188.847656 416.726562 201.925781 397.707031 209.167969 C 392.199219 206.464844 386.902344 203.351562 382.484375 199.398438 C 377.902344 195.375 374.652344 190.21875 373.246094 184.566406 C 371.8125 178.914062 372.105469 172.902344 373.261719 167.050781 C 374.425781 161.1875 376.355469 155.429688 378.535156 149.757812 L 378.546875 149.734375 C 378.636719 149.484375 378.671875 149.1875 378.613281 148.910156 C 378.597656 148.828125 378.546875 148.761719 378.515625 148.6875 C 382.035156 146.183594 385.597656 143.734375 389.222656 141.371094 C 396.980469 136.476562 404.980469 131.921875 413.28125 127.914062 C 415.308594 126.828125 417.414062 125.894531 419.5625 125.035156 L 425.945312 122.367188 C 430.230469 120.667969 440.050781 116.429688 440.050781 116.429688 C 440.050781 116.429688 432.246094 117.863281 422.957031 121.683594 C 411.269531 126.488281 396.828125 134.367188 388.191406 139.945312 C 384.242188 142.457031 380.347656 145.042969 376.511719 147.703125 C 361.324219 150.457031 345.972656 152.695312 330.605469 152.671875 C 315.179688 152.757812 299.9375 150.007812 285.5 144.964844 C 271.085938 140.042969 257.820312 132.382812 245.304688 123.886719 C 232.941406 115.441406 221.289062 106.050781 210.007812 96.285156 C 207.339844 91.625 204.625 86.984375 201.789062 82.402344 C 189.816406 62.925781 177.347656 47.585938 163.207031 29.464844 C 159.648438 24.910156 138.730469 1.289062 138.730469 1.289062 C 138.730469 1.289062 190.082031 73.480469 197.046875 84.957031 C 199.8125 89.550781 202.464844 94.207031 205.140625 98.851562 C 205.785156 106.503906 205.378906 114.304688 204.054688 121.917969 C 202.636719 129.785156 200.277344 137.582031 196.269531 144.398438 C 192.226562 151.15625 186.238281 156.875 179.15625 160.882812 C 172.074219 164.914062 163.921875 167.199219 155.617188 167.734375 L 155.542969 167.742188 C 155.542969 167.742188 105.652344 143.519531 80.238281 134.3125 C 54.816406 125.226562 1.792969 113.082031 1.765625 113.167969 C 1.742188 113.257812 53.5625 128.636719 78.539062 138.335938 C 103.519531 147.941406 128.433594 157.933594 152.167969 170.175781 C 152.167969 170.175781 150.238281 201.015625 144.015625 215.019531 C 140.921875 222.035156 136.753906 228.628906 131.554688 234.390625 C 126.503906 239.984375 120.359375 244.695312 113.445312 248.121094 C 98.039062 249.609375 20.058594 259.238281 20.066406 259.328125 C 20.078125 259.417969 98.191406 252.546875 113.441406 251.625 C 125.082031 259.039062 134.574219 269.820312 138.71875 282.421875 C 142.78125 294.738281 142.097656 308.347656 136.878906 320.257812 C 132.765625 322.460938 128.683594 324.710938 124.652344 327.046875 C 108.300781 336.625 40.441406 373.9375 40.484375 374.015625 C 40.53125 374.097656 110.195312 339.511719 126.890625 330.5625 C 130.65625 328.519531 134.398438 326.433594 138.136719 324.339844 C 146.710938 326.8125 155.164062 329.628906 163.144531 333.3125 C 171.394531 337.113281 179.160156 341.910156 185.371094 348.144531 C 191.601562 354.308594 196.0625 362.019531 199.488281 369.980469 C 202.8125 377.949219 205.195312 386.496094 204.78125 394.863281 L 204.78125 394.878906 C 204.761719 395.164062 204.859375 395.445312 205.003906 395.71875 C 193.988281 421.914062 176.359375 475.730469 176.359375 475.730469 C 176.359375 475.730469 187.136719 446.253906 192.507812 432.414062 C 197.164062 420.332031 202.140625 408.363281 207.363281 396.492188 C 207.417969 396.464844 207.484375 396.464844 207.539062 396.433594 C 217.707031 390.726562 227.933594 385.128906 238.667969 380.570312 C 249.367188 376.039062 260.597656 372.3125 272.191406 371.292969 C 294.957031 369.566406 318.691406 375.078125 337.195312 388.03125 C 337.769531 389.070312 338.328125 390.125 338.90625 391.171875 C 350.5 412.050781 362.660156 432.652344 375.421875 452.910156 C 381.855469 463.015625 388.5 473.0625 396.292969 482.332031 C 397.09375 483.292969 400.171875 486.453125 400.53125 486.410156 C 400.746094 486.382812 399.984375 485.207031 397.164062 481.703125 C 389.617188 472.351562 383.214844 462.242188 377.007812 452.050781 C 364.578125 431.640625 352.757812 410.910156 341.519531 389.914062 C 340.753906 388.46875 340.007812 387.015625 339.246094 385.570312 C 337.859375 380.695312 338.59375 375.371094 340.886719 370.859375 C 343.496094 365.570312 348.390625 361.570312 353.933594 358.949219 C 359.535156 356.285156 365.675781 355.023438 372.070312 354.496094 C 375.257812 354.195312 378.441406 354.023438 381.640625 353.984375 L 386.464844 353.996094 L 388.886719 354.042969 L 389.5 354.058594 C 389.726562 354.050781 389.78125 354.082031 390.429688 354.050781 C 390.855469 354.039062 391.296875 353.925781 391.71875 353.808594 C 414.144531 368.246094 460.941406 394.519531 460.992188 394.441406 C 461.046875 394.359375 428.542969 375.074219 412.753906 364.949219 C 406.21875 360.78125 399.742188 356.53125 393.3125 352.222656 C 393.15625 349.984375 392.851562 347.539062 392.21875 345.304688 L 391.03125 339.476562 L 390.265625 333.59375 L 389.921875 327.664062 C 389.742188 319.746094 390.6875 311.792969 392.726562 304.078125 C 396.78125 288.65625 405.3125 274.1875 417.523438 263.03125 " fill-opacity="1" fill-rule="nonzero"/></g></g></g></g><path fill="#ff3131" d="M 141.660156 796.65625 C 141.660156 798.542969 141.753906 800.429688 141.9375 802.308594 C 142.125 804.1875 142.398438 806.050781 142.769531 807.90625 C 143.136719 809.757812 143.59375 811.585938 144.144531 813.394531 C 144.691406 815.199219 145.328125 816.976562 146.050781 818.722656 C 146.773438 820.464844 147.578125 822.171875 148.46875 823.835938 C 149.359375 825.5 150.328125 827.117188 151.378906 828.6875 C 152.425781 830.257812 153.550781 831.773438 154.75 833.234375 C 155.945312 834.695312 157.210938 836.089844 158.546875 837.425781 C 159.882812 838.761719 161.28125 840.027344 162.742188 841.226562 C 164.199219 842.425781 165.714844 843.546875 167.285156 844.597656 C 168.855469 845.644531 170.472656 846.617188 172.136719 847.503906 C 173.804688 848.394531 175.507812 849.203125 177.253906 849.925781 C 179 850.648438 180.773438 851.28125 182.582031 851.832031 C 184.386719 852.378906 186.21875 852.835938 188.070312 853.207031 C 189.921875 853.574219 191.789062 853.851562 193.667969 854.035156 C 195.546875 854.222656 197.429688 854.3125 199.316406 854.3125 C 201.207031 854.3125 203.089844 854.222656 204.96875 854.035156 C 206.847656 853.851562 208.714844 853.574219 210.566406 853.207031 C 212.417969 852.835938 214.25 852.378906 216.054688 851.832031 C 217.863281 851.28125 219.636719 850.648438 221.382812 849.925781 C 223.128906 849.203125 224.832031 848.394531 226.496094 847.503906 C 228.164062 846.617188 229.78125 845.644531 231.351562 844.597656 C 232.921875 843.546875 234.4375 842.425781 235.894531 841.226562 C 237.355469 840.027344 238.753906 838.761719 240.089844 837.425781 C 241.421875 836.089844 242.691406 834.695312 243.886719 833.234375 C 245.085938 831.773438 246.210938 830.257812 247.257812 828.6875 C 248.308594 827.117188 249.277344 825.5 250.167969 823.835938 C 251.058594 822.171875 251.863281 820.464844 252.585938 818.722656 C 253.308594 816.976562 253.945312 815.199219 254.492188 813.394531 C 255.039062 811.585938 255.5 809.757812 255.867188 807.90625 C 256.234375 806.050781 256.511719 804.1875 256.699219 802.308594 C 256.882812 800.429688 256.976562 798.542969 256.976562 796.65625 C 256.976562 794.769531 256.882812 792.882812 256.699219 791.003906 C 256.511719 789.125 256.234375 787.261719 255.867188 785.40625 C 255.5 783.554688 255.039062 781.726562 254.492188 779.917969 C 253.945312 778.113281 253.308594 776.335938 252.585938 774.59375 C 251.863281 772.847656 251.058594 771.140625 250.167969 769.476562 C 249.277344 767.8125 248.308594 766.195312 247.257812 764.625 C 246.210938 763.054688 245.085938 761.539062 243.886719 760.078125 C 242.691406 758.617188 241.421875 757.222656 240.089844 755.886719 C 238.753906 754.550781 237.355469 753.285156 235.894531 752.085938 C 234.4375 750.886719 232.921875 749.765625 231.351562 748.714844 C 229.78125 747.667969 228.164062 746.695312 226.496094 745.808594 C 224.832031 744.917969 223.128906 744.109375 221.382812 743.386719 C 219.636719 742.664062 217.863281 742.03125 216.054688 741.480469 C 214.25 740.933594 212.417969 740.476562 210.566406 740.105469 C 208.714844 739.738281 206.847656 739.460938 204.96875 739.277344 C 203.089844 739.089844 201.207031 739 199.316406 739 C 197.429688 739 195.546875 739.089844 193.667969 739.277344 C 191.789062 739.460938 189.921875 739.738281 188.070312 740.105469 C 186.21875 740.476562 184.386719 740.933594 182.582031 741.480469 C 180.773438 742.03125 179 742.664062 177.253906 743.386719 C 175.507812 744.109375 173.804688 744.917969 172.136719 745.808594 C 170.472656 746.695312 168.855469 747.667969 167.285156 748.714844 C 165.714844 749.765625 164.199219 750.886719 162.742188 752.085938 C 161.28125 753.285156 159.882812 754.550781 158.546875 755.886719 C 157.210938 757.222656 155.945312 758.617188 154.75 760.078125 C 153.550781 761.539062 152.425781 763.054688 151.378906 764.625 C 150.328125 766.195312 149.359375 767.8125 148.46875 769.476562 C 147.578125 771.140625 146.773438 772.847656 146.050781 774.59375 C 145.328125 776.335938 144.691406 778.113281 144.144531 779.917969 C 143.59375 781.726562 143.136719 783.554688 142.769531 785.40625 C 142.398438 787.261719 142.125 789.125 141.9375 791.003906 C 141.753906 792.882812 141.660156 794.769531 141.660156 796.65625 Z M 141.660156 796.65625 " fill-opacity="1" fill-rule="nonzero"/><path fill="#fd0000" d="M 171.59375 746.097656 C 170.371094 747.308594 169.207031 748.570312 168.097656 749.882812 C 166.988281 751.199219 165.9375 752.5625 164.949219 753.96875 C 163.960938 755.378906 163.039062 756.828125 162.183594 758.320312 C 161.324219 759.8125 160.535156 761.335938 159.8125 762.898438 C 159.09375 764.460938 158.441406 766.050781 157.863281 767.671875 C 157.285156 769.292969 156.78125 770.933594 156.347656 772.601562 C 155.914062 774.265625 155.558594 775.949219 155.277344 777.644531 C 154.996094 779.34375 154.792969 781.046875 154.664062 782.765625 C 154.535156 784.480469 154.484375 786.199219 154.507812 787.917969 C 154.535156 789.636719 154.636719 791.355469 154.816406 793.066406 C 154.992188 794.777344 155.25 796.476562 155.578125 798.164062 C 155.910156 799.851562 156.316406 801.523438 156.796875 803.175781 C 157.277344 804.828125 157.832031 806.453125 158.457031 808.054688 C 159.082031 809.660156 159.78125 811.230469 160.546875 812.769531 C 161.3125 814.308594 162.148438 815.8125 163.050781 817.277344 C 163.949219 818.742188 164.914062 820.164062 165.945312 821.542969 C 166.972656 822.921875 168.0625 824.253906 169.210938 825.535156 C 170.355469 826.816406 171.558594 828.046875 172.816406 829.21875 C 174.074219 830.394531 175.382812 831.507812 176.738281 832.566406 C 178.097656 833.621094 179.5 834.617188 180.945312 835.546875 C 182.390625 836.480469 183.878906 837.34375 185.402344 838.140625 C 186.925781 838.941406 188.480469 839.667969 190.070312 840.328125 C 191.660156 840.988281 193.277344 841.574219 194.917969 842.089844 C 196.558594 842.605469 198.222656 843.042969 199.902344 843.410156 C 201.582031 843.773438 203.277344 844.066406 204.984375 844.28125 C 206.691406 844.492188 208.40625 844.632812 210.125 844.691406 C 211.84375 844.753906 213.5625 844.734375 215.28125 844.644531 C 216.996094 844.550781 218.707031 844.378906 220.410156 844.132812 C 222.113281 843.886719 223.800781 843.566406 225.476562 843.167969 C 227.148438 842.773438 228.800781 842.300781 230.433594 841.753906 C 232.066406 841.210938 233.671875 840.59375 235.246094 839.902344 C 236.824219 839.214844 238.367188 838.457031 239.875 837.628906 C 239.144531 838.351562 238.394531 839.054688 237.628906 839.738281 C 236.859375 840.421875 236.074219 841.082031 235.269531 841.722656 C 234.46875 842.363281 233.648438 842.980469 232.8125 843.578125 C 231.976562 844.175781 231.125 844.75 230.257812 845.300781 C 229.390625 845.851562 228.511719 846.378906 227.613281 846.882812 C 226.71875 847.386719 225.8125 847.867188 224.890625 848.324219 C 223.96875 848.78125 223.039062 849.210938 222.09375 849.617188 C 221.152344 850.023438 220.195312 850.402344 219.234375 850.757812 C 218.269531 851.113281 217.296875 851.441406 216.3125 851.742188 C 215.332031 852.046875 214.34375 852.324219 213.347656 852.574219 C 212.351562 852.824219 211.347656 853.046875 210.339844 853.242188 C 209.332031 853.4375 208.320312 853.609375 207.300781 853.75 C 206.285156 853.894531 205.261719 854.007812 204.238281 854.097656 C 203.214844 854.183594 202.191406 854.242188 201.164062 854.277344 C 200.136719 854.308594 199.109375 854.316406 198.082031 854.292969 C 197.054688 854.269531 196.03125 854.222656 195.007812 854.144531 C 193.980469 854.066406 192.960938 853.964844 191.941406 853.832031 C 190.921875 853.703125 189.90625 853.542969 188.898438 853.355469 C 187.886719 853.171875 186.882812 852.957031 185.882812 852.71875 C 184.882812 852.480469 183.890625 852.214844 182.90625 851.921875 C 181.921875 851.628906 180.945312 851.3125 179.980469 850.964844 C 179.011719 850.621094 178.054688 850.25 177.105469 849.855469 C 176.15625 849.460938 175.21875 849.039062 174.292969 848.59375 C 173.367188 848.148438 172.457031 847.675781 171.554688 847.183594 C 170.65625 846.6875 169.769531 846.167969 168.894531 845.628906 C 168.023438 845.085938 167.164062 844.519531 166.324219 843.933594 C 165.480469 843.34375 164.65625 842.734375 163.84375 842.101562 C 163.035156 841.472656 162.242188 840.816406 161.46875 840.144531 C 160.691406 839.46875 159.9375 838.773438 159.199219 838.058594 C 158.460938 837.34375 157.742188 836.609375 157.042969 835.855469 C 156.34375 835.105469 155.667969 834.332031 155.011719 833.542969 C 154.351562 832.753906 153.71875 831.949219 153.101562 831.125 C 152.488281 830.300781 151.898438 829.460938 151.328125 828.605469 C 150.757812 827.75 150.210938 826.882812 149.6875 825.996094 C 149.164062 825.113281 148.667969 824.214844 148.191406 823.304688 C 147.71875 822.394531 147.265625 821.46875 146.839844 820.535156 C 146.414062 819.601562 146.015625 818.65625 145.640625 817.699219 C 145.265625 816.742188 144.917969 815.777344 144.59375 814.800781 C 144.269531 813.824219 143.972656 812.84375 143.703125 811.851562 C 143.429688 810.859375 143.1875 809.863281 142.96875 808.859375 C 142.75 807.855469 142.558594 806.847656 142.398438 805.832031 C 142.234375 804.816406 142.097656 803.800781 141.988281 802.777344 C 141.878906 801.757812 141.796875 800.734375 141.742188 799.707031 C 141.6875 798.683594 141.660156 797.65625 141.660156 796.628906 C 141.660156 795.601562 141.6875 794.574219 141.746094 793.546875 C 141.800781 792.523438 141.882812 791.5 141.992188 790.476562 C 142.101562 789.457031 142.238281 788.4375 142.402344 787.425781 C 142.570312 786.410156 142.757812 785.402344 142.976562 784.398438 C 143.195312 783.394531 143.441406 782.394531 143.714844 781.40625 C 143.984375 780.414062 144.28125 779.433594 144.605469 778.457031 C 144.929688 777.484375 145.28125 776.515625 145.65625 775.5625 C 146.03125 774.605469 146.433594 773.660156 146.859375 772.726562 C 147.285156 771.789062 147.738281 770.867188 148.210938 769.957031 C 148.6875 769.046875 149.1875 768.148438 149.710938 767.265625 C 150.234375 766.382812 150.78125 765.511719 151.351562 764.65625 C 151.921875 763.804688 152.515625 762.964844 153.128906 762.140625 C 153.742188 761.316406 154.378906 760.511719 155.039062 759.722656 C 155.695312 758.933594 156.375 758.164062 157.074219 757.410156 C 157.773438 756.65625 158.492188 755.925781 159.230469 755.210938 C 159.96875 754.496094 160.726562 753.800781 161.5 753.128906 C 162.277344 752.453125 163.070312 751.800781 163.878906 751.171875 C 164.691406 750.539062 165.515625 749.929688 166.359375 749.34375 C 167.203125 748.753906 168.0625 748.191406 168.933594 747.648438 C 169.808594 747.109375 170.695312 746.589844 171.59375 746.097656 Z M 171.59375 746.097656 " fill-opacity="1" fill-rule="nonzero"/><path fill="#000000" d="M 199.320312 855.097656 C 201.234375 855.097656 203.140625 855.003906 205.046875 854.816406 C 206.953125 854.628906 208.84375 854.347656 210.71875 853.976562 C 212.597656 853.601562 214.453125 853.136719 216.285156 852.582031 C 218.113281 852.027344 219.914062 851.382812 221.683594 850.648438 C 223.453125 849.917969 225.179688 849.101562 226.867188 848.199219 C 228.554688 847.296875 230.195312 846.3125 231.789062 845.25 C 233.378906 844.1875 234.914062 843.046875 236.394531 841.832031 C 237.875 840.617188 239.289062 839.335938 240.644531 837.980469 C 241.996094 836.628906 243.28125 835.210938 244.496094 833.730469 C 245.710938 832.253906 246.847656 830.714844 247.910156 829.125 C 248.976562 827.535156 249.957031 825.894531 250.859375 824.207031 C 251.761719 822.519531 252.578125 820.789062 253.3125 819.019531 C 254.046875 817.253906 254.6875 815.453125 255.246094 813.621094 C 255.800781 811.789062 256.265625 809.933594 256.636719 808.058594 C 257.011719 806.179688 257.292969 804.289062 257.480469 802.382812 C 257.667969 800.480469 257.761719 798.570312 257.761719 796.65625 C 257.761719 794.742188 257.667969 792.832031 257.480469 790.929688 C 257.292969 789.023438 257.011719 787.132812 256.636719 785.253906 C 256.265625 783.378906 255.800781 781.523438 255.246094 779.691406 C 254.6875 777.859375 254.046875 776.058594 253.3125 774.292969 C 252.582031 772.523438 251.761719 770.792969 250.859375 769.105469 C 249.957031 767.417969 248.976562 765.777344 247.910156 764.1875 C 246.847656 762.59375 245.710938 761.058594 244.496094 759.582031 C 243.28125 758.101562 241.996094 756.683594 240.644531 755.332031 C 239.289062 753.976562 237.875 752.695312 236.394531 751.480469 C 234.914062 750.265625 233.378906 749.125 231.789062 748.0625 C 230.195312 747 228.554688 746.015625 226.867188 745.113281 C 225.179688 744.210938 223.453125 743.394531 221.683594 742.664062 C 219.914062 741.929688 218.113281 741.285156 216.285156 740.730469 C 214.453125 740.175781 212.597656 739.710938 210.71875 739.335938 C 208.84375 738.964844 206.953125 738.683594 205.046875 738.496094 C 203.140625 738.308594 201.234375 738.214844 199.320312 738.214844 C 197.40625 738.214844 195.496094 738.308594 193.589844 738.496094 C 191.683594 738.683594 189.792969 738.964844 187.917969 739.335938 C 186.039062 739.710938 184.183594 740.175781 182.351562 740.730469 C 180.523438 741.285156 178.722656 741.929688 176.953125 742.664062 C 175.183594 743.394531 173.457031 744.210938 171.769531 745.113281 C 170.082031 746.015625 168.441406 747 166.847656 748.0625 C 165.257812 749.125 163.722656 750.265625 162.242188 751.480469 C 160.761719 752.695312 159.347656 753.976562 157.992188 755.332031 C 156.640625 756.683594 155.355469 758.101562 154.140625 759.582031 C 152.925781 761.058594 151.789062 762.597656 150.726562 764.1875 C 149.660156 765.777344 148.679688 767.417969 147.777344 769.105469 C 146.875 770.792969 146.058594 772.523438 145.324219 774.292969 C 144.59375 776.058594 143.949219 777.859375 143.390625 779.691406 C 142.835938 781.523438 142.371094 783.378906 142 785.253906 C 141.625 787.132812 141.34375 789.023438 141.15625 790.929688 C 140.96875 792.832031 140.875 794.742188 140.875 796.65625 C 140.878906 798.570312 140.972656 800.480469 141.164062 802.382812 C 141.351562 804.285156 141.636719 806.175781 142.007812 808.054688 C 142.382812 809.929688 142.851562 811.785156 143.40625 813.613281 C 143.964844 815.445312 144.609375 817.242188 145.34375 819.011719 C 146.074219 820.777344 146.894531 822.507812 147.796875 824.191406 C 148.699219 825.878906 149.683594 827.519531 150.746094 829.109375 C 151.808594 830.699219 152.949219 832.234375 154.160156 833.714844 C 155.375 835.191406 156.660156 836.609375 158.011719 837.960938 C 159.367188 839.316406 160.78125 840.597656 162.261719 841.8125 C 163.738281 843.027344 165.273438 844.164062 166.863281 845.230469 C 168.457031 846.292969 170.09375 847.277344 171.78125 848.179688 C 173.46875 849.082031 175.195312 849.898438 176.964844 850.632812 C 178.730469 851.367188 180.53125 852.011719 182.359375 852.566406 C 184.191406 853.125 186.046875 853.589844 187.921875 853.964844 C 189.796875 854.339844 191.6875 854.621094 193.59375 854.8125 C 195.496094 855 197.40625 855.097656 199.320312 855.097656 Z M 199.320312 739.785156 C 201.179688 739.785156 203.039062 739.875 204.894531 740.058594 C 206.746094 740.242188 208.585938 740.515625 210.414062 740.878906 C 212.242188 741.242188 214.046875 741.691406 215.828125 742.234375 C 217.609375 742.773438 219.363281 743.402344 221.082031 744.113281 C 222.804688 744.828125 224.484375 745.621094 226.128906 746.5 C 227.769531 747.378906 229.367188 748.335938 230.914062 749.367188 C 232.464844 750.402344 233.957031 751.511719 235.398438 752.695312 C 236.835938 753.875 238.214844 755.125 239.53125 756.441406 C 240.851562 757.757812 242.097656 759.136719 243.28125 760.578125 C 244.460938 762.015625 245.570312 763.511719 246.605469 765.058594 C 247.640625 766.609375 248.597656 768.203125 249.476562 769.847656 C 250.351562 771.488281 251.148438 773.171875 251.859375 774.890625 C 252.574219 776.613281 253.199219 778.363281 253.742188 780.148438 C 254.28125 781.929688 254.734375 783.734375 255.097656 785.5625 C 255.460938 787.386719 255.734375 789.226562 255.917969 791.082031 C 256.097656 792.933594 256.191406 794.792969 256.191406 796.65625 C 256.191406 798.519531 256.097656 800.378906 255.917969 802.230469 C 255.734375 804.085938 255.460938 805.925781 255.097656 807.75 C 254.734375 809.578125 254.28125 811.382812 253.742188 813.164062 C 253.199219 814.949219 252.574219 816.699219 251.859375 818.421875 C 251.148438 820.140625 250.351562 821.824219 249.476562 823.464844 C 248.597656 825.109375 247.640625 826.703125 246.605469 828.253906 C 245.570312 829.800781 244.460938 831.296875 243.28125 832.734375 C 242.097656 834.175781 240.851562 835.554688 239.53125 836.871094 C 238.214844 838.1875 236.835938 839.4375 235.398438 840.617188 C 233.957031 841.800781 232.464844 842.910156 230.914062 843.945312 C 229.367188 844.976562 227.769531 845.933594 226.128906 846.8125 C 224.484375 847.691406 222.804688 848.484375 221.082031 849.199219 C 219.363281 849.910156 217.609375 850.539062 215.828125 851.078125 C 214.046875 851.621094 212.242188 852.070312 210.414062 852.433594 C 208.585938 852.796875 206.746094 853.070312 204.894531 853.253906 C 203.039062 853.4375 201.179688 853.527344 199.320312 853.527344 C 197.457031 853.527344 195.597656 853.4375 193.742188 853.253906 C 191.890625 853.070312 190.050781 852.796875 188.222656 852.433594 C 186.398438 852.070312 184.59375 851.621094 182.808594 851.078125 C 181.027344 850.539062 179.273438 849.910156 177.554688 849.199219 C 175.832031 848.484375 174.152344 847.691406 172.507812 846.8125 C 170.867188 845.933594 169.269531 844.976562 167.722656 843.945312 C 166.171875 842.910156 164.679688 841.800781 163.238281 840.617188 C 161.800781 839.4375 160.421875 838.1875 159.105469 836.871094 C 157.785156 835.554688 156.539062 834.175781 155.355469 832.734375 C 154.175781 831.296875 153.066406 829.800781 152.03125 828.253906 C 150.996094 826.703125 150.039062 825.109375 149.160156 823.464844 C 148.285156 821.824219 147.488281 820.140625 146.777344 818.421875 C 146.0625 816.699219 145.4375 814.949219 144.894531 813.164062 C 144.355469 811.382812 143.902344 809.578125 143.539062 807.75 C 143.175781 805.925781 142.902344 804.085938 142.71875 802.230469 C 142.539062 800.378906 142.445312 798.519531 142.445312 796.65625 C 142.449219 794.792969 142.542969 792.9375 142.726562 791.085938 C 142.910156 789.230469 143.183594 787.390625 143.550781 785.566406 C 143.914062 783.738281 144.367188 781.9375 144.910156 780.15625 C 145.453125 778.371094 146.078125 776.621094 146.792969 774.902344 C 147.507812 773.183594 148.300781 771.5 149.179688 769.859375 C 150.058594 768.21875 151.015625 766.625 152.050781 765.074219 C 153.085938 763.527344 154.195312 762.035156 155.375 760.59375 C 156.558594 759.15625 157.804688 757.777344 159.121094 756.460938 C 160.4375 755.144531 161.816406 753.894531 163.257812 752.714844 C 164.695312 751.53125 166.1875 750.421875 167.738281 749.390625 C 169.285156 748.355469 170.878906 747.398438 172.523438 746.519531 C 174.164062 745.640625 175.84375 744.84375 177.566406 744.128906 C 179.285156 743.417969 181.035156 742.789062 182.816406 742.246094 C 184.597656 741.707031 186.402344 741.253906 188.226562 740.886719 C 190.054688 740.523438 191.894531 740.25 193.746094 740.0625 C 195.597656 739.878906 197.457031 739.785156 199.320312 739.785156 Z M 199.320312 739.785156 " fill-opacity="1" fill-rule="nonzero"/><path fill="#ffe4e9" d="M 249.96875 789.078125 C 249.785156 787.117188 249.316406 785.222656 248.570312 783.402344 C 247.820312 781.578125 246.820312 779.90625 245.574219 778.382812 C 244.875 777.609375 243.863281 776.914062 243.0625 777.472656 C 242.144531 778.109375 242.292969 779.753906 242.53125 781.027344 C 243.886719 788.269531 244.238281 795.5625 243.59375 802.902344 C 243.476562 804.195312 243.429688 805.765625 244.308594 806.519531 C 245.191406 807.273438 246.402344 806.652344 247.214844 805.828125 C 250.808594 802.1875 250.632812 794.324219 249.96875 789.078125 Z M 249.96875 789.078125 " fill-opacity="1" fill-rule="nonzero"/><path fill="#ffe4e9" d="M 245.628906 814.632812 C 245.65625 814.414062 245.636719 814.195312 245.578125 813.980469 C 245.519531 813.765625 245.425781 813.570312 245.289062 813.394531 C 245.15625 813.21875 244.992188 813.070312 244.800781 812.957031 C 244.613281 812.84375 244.40625 812.769531 244.1875 812.734375 C 243.566406 812.742188 242.984375 812.894531 242.4375 813.191406 C 241.894531 813.488281 241.449219 813.894531 241.105469 814.410156 C 239.921875 816.214844 239.285156 818.191406 239.195312 820.347656 C 239.097656 820.804688 239.117188 821.257812 239.253906 821.707031 C 240.003906 823.519531 242.804688 821.632812 243.746094 820.496094 C 244.390625 819.660156 244.875 818.738281 245.199219 817.730469 C 245.523438 816.722656 245.667969 815.691406 245.628906 814.632812 Z M 245.628906 814.632812 " fill-opacity="1" fill-rule="nonzero"/><g clip-path="url(#5189f420e0)"><path fill="#ffffff" d="M 188.242188 759.460938 C 188.609375 758.785156 188.992188 758.105469 189.496094 757.519531 C 187.859375 762.902344 186.378906 768.375 185.847656 773.988281 C 185.785156 774.949219 185.710938 775.917969 185.851562 776.878906 C 187.386719 777.085938 188.949219 777.109375 190.496094 777.003906 C 191.535156 776.953125 192.578125 776.949219 193.605469 776.777344 C 194.113281 776.707031 194.617188 776.542969 195.128906 776.617188 C 195.484375 776.921875 195.652344 777.382812 195.949219 777.738281 C 196.46875 778.367188 197.121094 778.863281 197.777344 779.34375 C 198.082031 778.84375 198.382812 778.308594 198.871094 777.964844 C 199.285156 777.65625 199.777344 777.496094 200.261719 777.34375 C 199.945312 778.222656 199.132812 779.007812 199.351562 780.007812 C 199.820312 779.683594 200.078125 779.15625 200.453125 778.742188 C 200.664062 779.121094 200.878906 779.503906 201.121094 779.867188 C 201.25 779.859375 201.503906 779.847656 201.628906 779.839844 C 201.84375 779.464844 202.039062 779.070312 202.347656 778.761719 C 202.675781 779.179688 202.863281 779.773438 203.410156 779.964844 C 203.539062 779 202.757812 778.265625 202.527344 777.382812 C 203.628906 777.574219 204.445312 778.390625 204.953125 779.34375 C 205.75 778.726562 206.605469 778.113281 207.121094 777.21875 C 207.308594 776.941406 207.488281 776.511719 207.902344 776.597656 C 208.960938 776.722656 210.007812 776.957031 211.082031 776.957031 C 212.96875 777.03125 214.878906 777.1875 216.753906 776.875 C 217.042969 776.578125 216.925781 776.121094 216.960938 775.75 C 216.875 772.695312 216.324219 769.675781 215.6875 766.695312 C 215.03125 763.601562 214.125 760.574219 213.226562 757.546875 C 214.003906 758.445312 214.507812 759.539062 215.058594 760.585938 C 217.585938 765.636719 219.34375 771.054688 220.539062 776.570312 C 220.609375 776.910156 220.65625 777.257812 220.699219 777.605469 C 219.863281 778.445312 218.835938 779.054688 217.960938 779.851562 C 217.457031 779.59375 216.945312 779.296875 216.371094 779.226562 C 214.410156 778.980469 212.433594 778.875 210.460938 778.710938 C 209.832031 778.703125 209.148438 778.5625 208.550781 778.832031 C 207.722656 779.355469 207.027344 780.144531 206.78125 781.109375 C 207.792969 780.894531 208.742188 780.449219 209.59375 779.867188 C 210.40625 779.289062 211.519531 779.347656 212.398438 779.742188 C 214.519531 780.730469 216.855469 781.097656 219.082031 781.769531 C 220.265625 782.101562 221.4375 782.488281 222.652344 782.6875 C 223.042969 782.714844 223.636719 782.667969 223.675781 782.164062 C 223.796875 780.667969 223.5625 779.167969 223.476562 777.671875 C 223.144531 774.511719 222.847656 771.296875 221.78125 768.28125 C 220.574219 764.761719 219.101562 761.34375 217.679688 757.910156 C 218.285156 758.550781 218.792969 759.277344 219.304688 759.992188 C 221 762.398438 222.464844 764.976562 223.578125 767.707031 C 224.484375 769.898438 225.027344 772.210938 225.679688 774.488281 C 226.457031 777.28125 227.089844 780.109375 227.765625 782.925781 C 227.082031 783.890625 226.257812 784.757812 225.328125 785.488281 C 224.753906 785.949219 224.066406 786.261719 223.328125 786.339844 C 222.320312 785.332031 220.953125 784.835938 219.640625 784.355469 C 217.601562 783.628906 215.519531 783.015625 213.421875 782.476562 C 211.910156 782.203125 210.347656 782.355469 208.859375 782.6875 C 208.160156 782.863281 207.390625 783.023438 206.914062 783.613281 C 208.003906 784.164062 209.269531 783.996094 210.449219 783.996094 C 211.320312 784.027344 212.207031 783.464844 213.050781 783.882812 C 213.796875 784.246094 214.089844 785.089844 214.6875 785.621094 C 216.882812 787.777344 219.3125 789.679688 221.734375 791.566406 C 223.542969 792.949219 225.371094 794.300781 227.3125 795.488281 C 227.773438 795.757812 228.3125 796.074219 228.859375 795.875 C 229.332031 795.675781 229.738281 795.351562 230.195312 795.121094 C 230.382812 795.980469 230.285156 796.863281 230.253906 797.734375 C 230.015625 801.164062 229.617188 804.585938 228.988281 807.96875 C 228.5625 810.175781 228.046875 812.378906 227.171875 814.457031 C 226.015625 817.726562 224.792969 820.988281 223.148438 824.046875 C 222.554688 825.132812 221.925781 826.203125 221.132812 827.15625 C 222.453125 823.664062 223.65625 820.117188 224.570312 816.496094 C 225.351562 813.554688 225.765625 810.539062 226.121094 807.519531 C 226.367188 805.488281 226.582031 803.453125 226.71875 801.40625 C 226.777344 800.4375 226.75 799.414062 226.28125 798.535156 C 225.988281 797.914062 225.472656 797.441406 224.945312 797.019531 C 221.273438 794.117188 217.519531 791.308594 213.910156 788.324219 C 213.242188 787.796875 212.769531 787.015625 211.953125 786.691406 C 210.675781 786.136719 209.261719 785.855469 207.867188 785.925781 C 208.019531 786.21875 208.195312 786.503906 208.441406 786.730469 C 209.171875 787.445312 209.914062 788.15625 210.707031 788.804688 C 211.222656 789.210938 211.765625 789.617188 212.417969 789.769531 C 212.855469 789.898438 213.382812 789.921875 213.699219 790.296875 C 213.921875 790.636719 213.867188 791.066406 213.890625 791.453125 C 213.929688 795.136719 214.125 798.820312 213.949219 802.5 C 213.910156 805.859375 213.738281 809.226562 213.113281 812.53125 C 212.0625 818.71875 210.886719 825.03125 207.921875 830.632812 C 207.171875 831.992188 206.367188 833.351562 205.304688 834.492188 C 208.425781 827.929688 209.84375 820.664062 210.203125 813.4375 C 210.460938 807.832031 210.421875 802.210938 210.082031 796.609375 C 210.03125 795.273438 209.882812 793.878906 210.386719 792.601562 C 210.0625 791.746094 209.386719 791.070312 208.828125 790.355469 C 207.902344 789.355469 206.996094 788.234375 205.714844 787.671875 C 205.632812 788.597656 206.59375 789.160156 206.753906 790.03125 C 207.007812 791.429688 206.792969 792.863281 206.613281 794.257812 C 206.0625 797.472656 205.117188 800.613281 204.019531 803.683594 C 203.480469 805.0625 202.980469 806.492188 202.070312 807.679688 C 201.851562 807.246094 201.71875 806.6875 201.160156 806.597656 C 200.992188 806.960938 200.835938 807.332031 200.667969 807.699219 C 199.511719 806.183594 198.953125 804.324219 198.296875 802.558594 C 197.117188 798.957031 195.988281 795.273438 195.832031 791.464844 C 195.820312 790.730469 195.871094 789.949219 196.273438 789.3125 C 196.589844 788.800781 197.007812 788.324219 197.070312 787.699219 C 196.296875 787.902344 195.71875 788.476562 195.152344 789 C 194.257812 789.878906 193.4375 790.835938 192.71875 791.859375 C 192.527344 792.160156 192.21875 792.503906 192.410156 792.878906 C 192.800781 793.988281 192.726562 795.183594 192.640625 796.335938 C 192.308594 801.691406 192.292969 807.0625 192.457031 812.421875 C 192.765625 820.03125 194.140625 827.71875 197.476562 834.613281 C 194.972656 831.683594 193.402344 828.074219 192.238281 824.433594 C 191.023438 820.609375 190.300781 816.652344 189.632812 812.707031 C 189.175781 810.355469 188.953125 807.964844 188.855469 805.574219 C 188.625 800.65625 188.691406 795.730469 188.859375 790.816406 C 188.820312 790.210938 189.425781 789.929688 189.929688 789.859375 C 191.398438 789.609375 192.421875 788.429688 193.480469 787.488281 C 193.953125 786.996094 194.617188 786.605469 194.785156 785.902344 C 193.382812 785.890625 191.957031 786.136719 190.683594 786.734375 C 189.917969 787.0625 189.480469 787.808594 188.832031 788.296875 C 185.609375 790.972656 182.261719 793.492188 178.96875 796.078125 C 178.320312 796.601562 177.628906 797.078125 177.035156 797.671875 C 176.285156 798.445312 175.957031 799.542969 175.996094 800.601562 C 176.03125 802.839844 176.320312 805.066406 176.558594 807.289062 C 176.863281 809.554688 177.097656 811.832031 177.582031 814.066406 C 178.511719 818.523438 179.976562 822.847656 181.550781 827.113281 C 180.921875 826.378906 180.425781 825.546875 179.9375 824.714844 C 178.109375 821.480469 176.792969 817.988281 175.554688 814.492188 C 174.261719 811.378906 173.691406 808.027344 173.191406 804.710938 C 172.867188 802.394531 172.617188 800.066406 172.464844 797.734375 C 172.394531 796.863281 172.257812 795.964844 172.542969 795.121094 C 173.167969 795.425781 173.746094 796.074219 174.503906 795.90625 C 175.285156 795.660156 175.929688 795.132812 176.621094 794.710938 C 179.859375 792.542969 182.917969 790.117188 185.886719 787.589844 C 186.703125 786.863281 187.554688 786.164062 188.289062 785.34375 C 188.757812 784.832031 189.050781 784.101562 189.746094 783.847656 C 190.484375 783.515625 191.25 783.953125 192 783.980469 C 193.085938 784.023438 194.195312 784.089844 195.261719 783.84375 C 195.496094 783.824219 195.632812 783.628906 195.773438 783.46875 C 194.828125 782.796875 193.65625 782.628906 192.542969 782.445312 C 191.269531 782.304688 189.949219 782.238281 188.714844 782.621094 C 186.125 783.351562 183.511719 784.054688 181.058594 785.175781 C 180.4375 785.433594 179.9375 785.882812 179.414062 786.289062 C 178.433594 786.335938 177.601562 785.683594 176.890625 785.082031 C 176.175781 784.429688 175.480469 783.726562 174.953125 782.910156 C 175.957031 778.53125 177.054688 774.160156 178.355469 769.855469 C 179.484375 766.34375 181.257812 763.070312 183.367188 760.054688 C 183.796875 759.449219 184.199219 758.808594 184.769531 758.324219 C 184.703125 758.644531 184.605469 758.957031 184.480469 759.261719 C 183.222656 762.226562 182 765.207031 180.945312 768.25 C 179.902344 771.175781 179.59375 774.292969 179.269531 777.363281 C 179.144531 779.074219 178.894531 780.804688 179.105469 782.515625 C 179.476562 782.625 179.863281 782.765625 180.25 782.660156 C 181.523438 782.410156 182.757812 782.015625 184.003906 781.664062 C 186.121094 781.046875 188.332031 780.675781 190.34375 779.726562 C 191.222656 779.34375 192.339844 779.296875 193.148438 779.882812 C 193.988281 780.457031 194.925781 780.890625 195.917969 781.113281 C 195.667969 780.074219 194.871094 779.167969 193.910156 778.730469 C 192.421875 778.566406 190.925781 778.875 189.4375 778.925781 C 187.875 779.148438 186.148438 778.933594 184.773438 779.855469 C 183.878906 779.039062 182.789062 778.445312 181.980469 777.535156 C 183.257812 771.273438 185.230469 765.113281 188.242188 759.460938 Z M 188.242188 759.460938 " fill-opacity="1" fill-rule="nonzero"/></g></svg>